<mxfile host="app.diagrams.net" modified="2024-03-05T11:17:56.564Z" agent="Mozilla/5.0 (Macintosh; Intel Mac OS X 10_15_7) AppleWebKit/537.36 (KHTML, like Gecko) Chrome/122.0.0.0 Safari/537.36" version="24.0.0" etag="PXRv74j8dCW6h5A3jK90" type="github">
  <diagram name="第 1 页" id="yb7rkV4nGNVqPL1IM8GH">
    <mxGraphModel>
      <root>
        <mxCell id="0" />
        <mxCell id="1" parent="0" />
      </root>
    </mxGraphModel>
  </diagram>
</mxfile>
